<?xml version="1.0" encoding="iso-8859-1"?>
<!-- Uploaded to: SVG Repo, www.svgrepo.com, Generator: SVG Repo Mixer Tools -->
<svg height="800px" width="800px" version="1.1" id="Layer_1" xmlns="http://www.w3.org/2000/svg" xmlns:xlink="http://www.w3.org/1999/xlink" 
	 viewBox="0 0 512 512" xml:space="preserve">
<circle style="fill:#B4D8F1;" cx="256" cy="256" r="256"/>
<path style="fill:#98C8ED;" d="M256,0v512c141.385,0,256-114.615,256-256S397.385,0,256,0z"/>
<path style="fill:#95D5A7;" d="M102.4,332.8c21.207,0,38.4,17.193,38.4,38.4V384c0,21.207,17.193,38.4,38.4,38.4
	s38.4-17.193,38.4-38.4v-89.6c0-21.207-17.193-38.4-38.4-38.4s-38.4-17.193-38.4-38.4v-12.8c0-35.346,28.654-64,64-64
	c21.207,0,38.4-17.193,38.4-38.4V51.2c0-21.207-17.193-38.4-38.4-38.4h-28.902C74.988,46.019,1.812,140.275,0.052,251.887
	C10.758,297.673,53.665,332.8,102.4,332.8z"/>
<g>
	<path style="fill:#80CB93;" d="M332.8,115.2c0,42.415,34.385,76.8,76.8,76.8h51.2c14.641,0,28.323-4.096,39.965-11.204
		C477.75,105.798,421.216,45.475,348.635,17.289C338.702,30.23,332.8,46.427,332.8,64V115.2z"/>
	<path style="fill:#80CB93;" d="M473.6,268.8h-128c-21.207,0-38.4,17.193-38.4,38.4s17.193,38.4,38.4,38.4S384,362.793,384,384v25.6
		c0,20.444,19.547,38.34,39.951,39.603c45.426-39.523,76.764-94.803,85.533-157.325C503.197,278.889,488.861,268.8,473.6,268.8z"/>
</g>
</svg>